# xmcd
#
# Track frame offsets:
#	150
#	11575
#	29450
#	58372
#	85196
#	105052
#	118314
#	140034
#	154435
#	168298
#	186504
#	207232
#	222709
#
# Disc length: 3184 seconds
#
# Revision: 0
# Processed by: cddbd v1.5.2PL0 Copyright (c) Steve Scherf et al.
# Submitted via: audiograbber 1.83.01
#
DISCID=c40c6e0d
DTITLE=Екатерина Болдырева - Джинсовые песни
DYEAR=2004
DGENRE=Bards
TTITLE0=Петух
TTITLE1=Огнетушитель
TTITLE2=Киров блюз
TTITLE3=Не надо
TTITLE4=Нелетная погода
TTITLE5=Д`Артаньян
TTITLE6=Час
TTITLE7=Москва с твоей женой
TTITLE8=Не будите
TTITLE9=Ирландия
TTITLE10=Я слышу
TTITLE11=Голова
TTITLE12=Довольно гнездится здесь
EXTD=
EXTT0=
EXTT1=
EXTT2=
EXTT3=
EXTT4=
EXTT5=
EXTT6=
EXTT7=
EXTT8=
EXTT9=
EXTT10=
EXTT11=
EXTT12=
PLAYORDER=
